<mxfile host="app.diagrams.net" modified="2020-06-10T23:46:05.845Z" agent="5.0 (Windows NT 10.0; Win64; x64) AppleWebKit/537.36 (KHTML, like Gecko) Chrome/83.0.4103.97 Safari/537.36" etag="cMddU5lNxTLTt7eUUuJ6" version="13.2.1" type="github">
  <diagram id="b7CmRXWE2GOlUavSTZUe" name="Page-1">
    <mxGraphModel dx="2009" dy="683" grid="1" gridSize="10" guides="1" tooltips="1" connect="1" arrows="1" fold="1" page="1" pageScale="1" pageWidth="827" pageHeight="1169" math="0" shadow="0">
      <root>
        <mxCell id="0" />
        <mxCell id="1" parent="0" />
        <mxCell id="aLQe0wNo5wLi3Sxk2y81-3" value="No" style="edgeStyle=orthogonalEdgeStyle;rounded=0;orthogonalLoop=1;jettySize=auto;html=1;entryX=0.5;entryY=0;entryDx=0;entryDy=0;strokeWidth=1;endArrow=block;endFill=0;strokeColor=#000000;exitX=0;exitY=0.5;exitDx=0;exitDy=0;" parent="1" source="DqUX-duL37DNaFb8Gwn0-25" target="aLQe0wNo5wLi3Sxk2y81-2" edge="1">
          <mxGeometry x="-0.1489" y="21" relative="1" as="geometry">
            <mxPoint x="70" y="270" as="sourcePoint" />
            <mxPoint as="offset" />
          </mxGeometry>
        </mxCell>
        <mxCell id="aLQe0wNo5wLi3Sxk2y81-1" value="Power On Reset" style="rounded=1;whiteSpace=wrap;html=1;fillColor=#f8cecc;strokeColor=#b85450;" parent="1" vertex="1">
          <mxGeometry x="169" y="60" width="120" height="50" as="geometry" />
        </mxCell>
        <mxCell id="aLQe0wNo5wLi3Sxk2y81-4" value="No" style="edgeStyle=orthogonalEdgeStyle;rounded=0;orthogonalLoop=1;jettySize=auto;html=1;exitX=0;exitY=0.5;exitDx=0;exitDy=0;endArrow=block;endFill=0;strokeColor=#000000;strokeWidth=1;entryX=0.5;entryY=0;entryDx=0;entryDy=0;" parent="1" source="aLQe0wNo5wLi3Sxk2y81-2" target="aLQe0wNo5wLi3Sxk2y81-6" edge="1">
          <mxGeometry x="-0.2593" y="15" relative="1" as="geometry">
            <mxPoint x="309" y="346" as="targetPoint" />
            <mxPoint as="offset" />
          </mxGeometry>
        </mxCell>
        <mxCell id="aLQe0wNo5wLi3Sxk2y81-2" value="Does&lt;br&gt;&lt;font color=&quot;#0000ff&quot;&gt;&lt;b&gt;fw-latest.hex&lt;/b&gt;&lt;/font&gt;&lt;br&gt;exist in FS?" style="rhombus;whiteSpace=wrap;html=1;" parent="1" vertex="1">
          <mxGeometry x="-11" y="256" width="160" height="90" as="geometry" />
        </mxCell>
        <mxCell id="aLQe0wNo5wLi3Sxk2y81-5" value="Yes" style="edgeStyle=orthogonalEdgeStyle;rounded=0;orthogonalLoop=1;jettySize=auto;html=1;exitX=1;exitY=0.5;exitDx=0;exitDy=0;endArrow=block;endFill=0;strokeColor=#000000;strokeWidth=1;entryX=0.5;entryY=0;entryDx=0;entryDy=0;" parent="1" source="aLQe0wNo5wLi3Sxk2y81-2" target="CXJbbaDLJKEDGF4cZTQp-16" edge="1">
          <mxGeometry x="-0.6168" y="20" relative="1" as="geometry">
            <mxPoint x="109" y="706" as="targetPoint" />
            <mxPoint x="-11" y="386" as="sourcePoint" />
            <mxPoint as="offset" />
          </mxGeometry>
        </mxCell>
        <mxCell id="aLQe0wNo5wLi3Sxk2y81-8" style="edgeStyle=orthogonalEdgeStyle;rounded=0;orthogonalLoop=1;jettySize=auto;html=1;exitX=0.5;exitY=1;exitDx=0;exitDy=0;entryX=0.5;entryY=0;entryDx=0;entryDy=0;endArrow=block;endFill=0;strokeColor=#000000;strokeWidth=1;" parent="1" source="aLQe0wNo5wLi3Sxk2y81-6" target="aLQe0wNo5wLi3Sxk2y81-7" edge="1">
          <mxGeometry relative="1" as="geometry" />
        </mxCell>
        <mxCell id="aLQe0wNo5wLi3Sxk2y81-6" value="Read&lt;br&gt;&lt;b&gt;&lt;font color=&quot;#0000ff&quot;&gt;fw-onboard.md&lt;/font&gt;&lt;/b&gt;&lt;br&gt;-&amp;gt; fw_onboard_ver" style="rounded=0;whiteSpace=wrap;html=1;" parent="1" vertex="1">
          <mxGeometry x="-132" y="347" width="120" height="60" as="geometry" />
        </mxCell>
        <mxCell id="aLQe0wNo5wLi3Sxk2y81-16" style="edgeStyle=orthogonalEdgeStyle;rounded=0;orthogonalLoop=1;jettySize=auto;html=1;exitX=0.5;exitY=1;exitDx=0;exitDy=0;entryX=0.5;entryY=0;entryDx=0;entryDy=0;endArrow=block;endFill=0;strokeColor=#000000;strokeWidth=1;" parent="1" source="aLQe0wNo5wLi3Sxk2y81-7" target="aLQe0wNo5wLi3Sxk2y81-9" edge="1">
          <mxGeometry relative="1" as="geometry" />
        </mxCell>
        <mxCell id="aLQe0wNo5wLi3Sxk2y81-7" value="Read&lt;br&gt;&lt;b&gt;&lt;font color=&quot;#ff0000&quot;&gt;fw-latest.md&lt;/font&gt;&lt;/b&gt;&lt;br&gt;-&amp;gt; fw_latest_ver" style="rounded=0;whiteSpace=wrap;html=1;" parent="1" vertex="1">
          <mxGeometry x="-132" y="447" width="120" height="60" as="geometry" />
        </mxCell>
        <mxCell id="aLQe0wNo5wLi3Sxk2y81-17" value="No" style="edgeStyle=orthogonalEdgeStyle;rounded=0;orthogonalLoop=1;jettySize=auto;html=1;endArrow=block;endFill=0;strokeColor=#000000;strokeWidth=1;entryX=0.5;entryY=0;entryDx=0;entryDy=0;exitX=0;exitY=0.5;exitDx=0;exitDy=0;" parent="1" source="aLQe0wNo5wLi3Sxk2y81-9" target="CXJbbaDLJKEDGF4cZTQp-2" edge="1">
          <mxGeometry x="0.5616" y="14" relative="1" as="geometry">
            <mxPoint y="1" as="offset" />
            <mxPoint x="-162" y="651" as="targetPoint" />
            <mxPoint x="-282" y="377" as="sourcePoint" />
          </mxGeometry>
        </mxCell>
        <mxCell id="aLQe0wNo5wLi3Sxk2y81-9" value="fw_onboard_ver&amp;nbsp;=&lt;br&gt;fw_latest_ver ?" style="rhombus;whiteSpace=wrap;html=1;" parent="1" vertex="1">
          <mxGeometry x="-154.5" y="547" width="165" height="90" as="geometry" />
        </mxCell>
        <mxCell id="aLQe0wNo5wLi3Sxk2y81-11" value="Yes" style="edgeStyle=orthogonalEdgeStyle;rounded=0;orthogonalLoop=1;jettySize=auto;html=1;endArrow=block;endFill=0;strokeColor=#000000;strokeWidth=1;exitX=1;exitY=0.5;exitDx=0;exitDy=0;entryX=0;entryY=0.5;entryDx=0;entryDy=0;" parent="1" source="aLQe0wNo5wLi3Sxk2y81-9" target="rALxHIFjaiXuFr-EPLwB-8" edge="1">
          <mxGeometry x="-0.0323" y="15" relative="1" as="geometry">
            <mxPoint x="-62" y="667" as="sourcePoint" />
            <mxPoint x="58" y="442" as="targetPoint" />
            <mxPoint x="1" as="offset" />
          </mxGeometry>
        </mxCell>
        <mxCell id="aLQe0wNo5wLi3Sxk2y81-19" style="edgeStyle=orthogonalEdgeStyle;rounded=0;orthogonalLoop=1;jettySize=auto;html=1;exitX=0.5;exitY=1;exitDx=0;exitDy=0;entryX=0.5;entryY=0;entryDx=0;entryDy=0;endArrow=block;endFill=0;strokeColor=#000000;strokeWidth=1;" parent="1" source="aLQe0wNo5wLi3Sxk2y81-13" target="aLQe0wNo5wLi3Sxk2y81-18" edge="1">
          <mxGeometry relative="1" as="geometry" />
        </mxCell>
        <mxCell id="aLQe0wNo5wLi3Sxk2y81-13" value="Scan TWI bus" style="rounded=0;whiteSpace=wrap;html=1;" parent="1" vertex="1">
          <mxGeometry x="-426" y="1075" width="120" height="60" as="geometry" />
        </mxCell>
        <mxCell id="aLQe0wNo5wLi3Sxk2y81-21" value="No" style="edgeStyle=orthogonalEdgeStyle;rounded=0;orthogonalLoop=1;jettySize=auto;html=1;exitX=0;exitY=0.5;exitDx=0;exitDy=0;entryX=1;entryY=0.5;entryDx=0;entryDy=0;endArrow=block;endFill=0;strokeColor=#000000;strokeWidth=1;" parent="1" source="aLQe0wNo5wLi3Sxk2y81-18" target="DqUX-duL37DNaFb8Gwn0-20" edge="1">
          <mxGeometry x="-0.2632" y="15" relative="1" as="geometry">
            <mxPoint x="1" as="offset" />
            <mxPoint x="-492" y="1220" as="targetPoint" />
          </mxGeometry>
        </mxCell>
        <mxCell id="aLQe0wNo5wLi3Sxk2y81-23" value="Yes" style="edgeStyle=orthogonalEdgeStyle;rounded=0;orthogonalLoop=1;jettySize=auto;html=1;exitX=1;exitY=0.5;exitDx=0;exitDy=0;entryX=0.5;entryY=0;entryDx=0;entryDy=0;endArrow=block;endFill=0;strokeColor=#000000;strokeWidth=1;" parent="1" source="aLQe0wNo5wLi3Sxk2y81-18" target="aLQe0wNo5wLi3Sxk2y81-22" edge="1">
          <mxGeometry y="20" relative="1" as="geometry">
            <mxPoint as="offset" />
          </mxGeometry>
        </mxCell>
        <mxCell id="aLQe0wNo5wLi3Sxk2y81-18" value="TWI device&lt;br&gt;detected ?" style="rhombus;whiteSpace=wrap;html=1;" parent="1" vertex="1">
          <mxGeometry x="-448.5" y="1175" width="165" height="90" as="geometry" />
        </mxCell>
        <mxCell id="aLQe0wNo5wLi3Sxk2y81-26" value="Yes" style="edgeStyle=orthogonalEdgeStyle;rounded=0;orthogonalLoop=1;jettySize=auto;html=1;exitX=1;exitY=0.5;exitDx=0;exitDy=0;entryX=0.5;entryY=0;entryDx=0;entryDy=0;endArrow=block;endFill=0;strokeColor=#000000;strokeWidth=1;" parent="1" source="aLQe0wNo5wLi3Sxk2y81-22" target="aLQe0wNo5wLi3Sxk2y81-30" edge="1">
          <mxGeometry y="20" relative="1" as="geometry">
            <mxPoint x="-215" y="1410" as="targetPoint" />
            <mxPoint as="offset" />
          </mxGeometry>
        </mxCell>
        <mxCell id="aLQe0wNo5wLi3Sxk2y81-22" value="Bootloader&lt;br&gt;TWI address ?" style="rhombus;whiteSpace=wrap;html=1;" parent="1" vertex="1">
          <mxGeometry x="-297.5" y="1280" width="165" height="90" as="geometry" />
        </mxCell>
        <mxCell id="aLQe0wNo5wLi3Sxk2y81-27" value="No" style="edgeStyle=orthogonalEdgeStyle;rounded=0;orthogonalLoop=1;jettySize=auto;html=1;endArrow=block;endFill=0;strokeColor=#000000;strokeWidth=1;exitX=0;exitY=0.5;exitDx=0;exitDy=0;entryX=0.5;entryY=0;entryDx=0;entryDy=0;" parent="1" source="aLQe0wNo5wLi3Sxk2y81-22" target="aLQe0wNo5wLi3Sxk2y81-38" edge="1">
          <mxGeometry x="-0.2632" y="15" relative="1" as="geometry">
            <mxPoint x="-115" y="1380" as="sourcePoint" />
            <mxPoint x="1" as="offset" />
            <mxPoint x="-390" y="1328" as="targetPoint" />
          </mxGeometry>
        </mxCell>
        <mxCell id="aLQe0wNo5wLi3Sxk2y81-33" style="edgeStyle=orthogonalEdgeStyle;rounded=0;orthogonalLoop=1;jettySize=auto;html=1;exitX=0.5;exitY=1;exitDx=0;exitDy=0;entryX=0.5;entryY=0;entryDx=0;entryDy=0;endArrow=block;endFill=0;strokeColor=#000000;strokeWidth=1;" parent="1" source="aLQe0wNo5wLi3Sxk2y81-30" target="aLQe0wNo5wLi3Sxk2y81-32" edge="1">
          <mxGeometry relative="1" as="geometry" />
        </mxCell>
        <mxCell id="aLQe0wNo5wLi3Sxk2y81-30" value="&lt;div&gt;&lt;span&gt;1.Initialize bootloader&lt;/span&gt;&lt;/div&gt;2.&lt;b&gt;Upload firmware&lt;/b&gt;" style="rounded=0;whiteSpace=wrap;html=1;fillColor=#dae8fc;strokeColor=#6c8ebf;align=center;" parent="1" vertex="1">
          <mxGeometry x="-128.5" y="1370" width="120" height="60" as="geometry" />
        </mxCell>
        <mxCell id="aLQe0wNo5wLi3Sxk2y81-37" style="edgeStyle=orthogonalEdgeStyle;rounded=0;orthogonalLoop=1;jettySize=auto;html=1;exitX=0.5;exitY=1;exitDx=0;exitDy=0;entryX=0.5;entryY=0;entryDx=0;entryDy=0;endArrow=block;endFill=0;strokeColor=#000000;strokeWidth=1;" parent="1" source="aLQe0wNo5wLi3Sxk2y81-32" target="aLQe0wNo5wLi3Sxk2y81-35" edge="1">
          <mxGeometry relative="1" as="geometry" />
        </mxCell>
        <mxCell id="aLQe0wNo5wLi3Sxk2y81-32" value="Start application&lt;br&gt;Verify app version" style="rounded=0;whiteSpace=wrap;html=1;" parent="1" vertex="1">
          <mxGeometry x="-128.5" y="1470" width="120" height="60" as="geometry" />
        </mxCell>
        <mxCell id="aLQe0wNo5wLi3Sxk2y81-34" value="Yes" style="edgeStyle=orthogonalEdgeStyle;rounded=0;orthogonalLoop=1;jettySize=auto;html=1;exitX=1;exitY=0.5;exitDx=0;exitDy=0;endArrow=block;endFill=0;strokeColor=#000000;strokeWidth=1;entryX=0.5;entryY=0;entryDx=0;entryDy=0;" parent="1" source="aLQe0wNo5wLi3Sxk2y81-35" target="CXJbbaDLJKEDGF4cZTQp-1" edge="1">
          <mxGeometry y="20" relative="1" as="geometry">
            <mxPoint x="-148.5" y="1664" as="targetPoint" />
            <mxPoint as="offset" />
          </mxGeometry>
        </mxCell>
        <mxCell id="aLQe0wNo5wLi3Sxk2y81-35" value="Application firmware&lt;br&gt;updated ?" style="rhombus;whiteSpace=wrap;html=1;" parent="1" vertex="1">
          <mxGeometry x="-151" y="1570" width="165" height="90" as="geometry" />
        </mxCell>
        <mxCell id="aLQe0wNo5wLi3Sxk2y81-36" value="No" style="edgeStyle=orthogonalEdgeStyle;rounded=0;orthogonalLoop=1;jettySize=auto;html=1;entryX=1;entryY=0.5;entryDx=0;entryDy=0;endArrow=block;endFill=0;strokeColor=#000000;strokeWidth=1;exitX=0;exitY=0.5;exitDx=0;exitDy=0;" parent="1" source="aLQe0wNo5wLi3Sxk2y81-35" target="DqUX-duL37DNaFb8Gwn0-24" edge="1">
          <mxGeometry x="-0.2632" y="15" relative="1" as="geometry">
            <mxPoint x="31.5" y="1670" as="sourcePoint" />
            <mxPoint x="1" as="offset" />
            <mxPoint x="61.5" y="1615" as="targetPoint" />
          </mxGeometry>
        </mxCell>
        <mxCell id="aLQe0wNo5wLi3Sxk2y81-39" style="edgeStyle=orthogonalEdgeStyle;rounded=0;orthogonalLoop=1;jettySize=auto;html=1;exitX=1;exitY=0.5;exitDx=0;exitDy=0;endArrow=block;endFill=0;strokeColor=#000000;strokeWidth=1;entryX=0;entryY=0.5;entryDx=0;entryDy=0;dashed=1;" parent="1" source="aLQe0wNo5wLi3Sxk2y81-38" target="aLQe0wNo5wLi3Sxk2y81-30" edge="1">
          <mxGeometry relative="1" as="geometry">
            <mxPoint x="-25" y="1415" as="targetPoint" />
          </mxGeometry>
        </mxCell>
        <mxCell id="aLQe0wNo5wLi3Sxk2y81-38" value="Reset ATtiny85 to&lt;br&gt;stop application and&lt;br&gt;start bootloader&lt;br&gt;&lt;div&gt;&lt;/div&gt;" style="rounded=0;whiteSpace=wrap;html=1;align=center;fillColor=#fff2cc;strokeColor=#d6b656;" parent="1" vertex="1">
          <mxGeometry x="-424" y="1370" width="120" height="60" as="geometry" />
        </mxCell>
        <mxCell id="CXJbbaDLJKEDGF4cZTQp-1" value="Rename&lt;br&gt;&lt;b&gt;&lt;font color=&quot;#0000ff&quot;&gt;fw-latest.hex&lt;/font&gt;&lt;/b&gt; -&amp;gt;&lt;br&gt;&lt;b&gt;&lt;font color=&quot;#0000ff&quot;&gt;fw-onboard.hex&lt;/font&gt;&lt;/b&gt;" style="rounded=0;whiteSpace=wrap;html=1;" parent="1" vertex="1">
          <mxGeometry x="14" y="1660" width="120" height="60" as="geometry" />
        </mxCell>
        <mxCell id="CXJbbaDLJKEDGF4cZTQp-2" value="Download&lt;br&gt;&lt;font color=&quot;#ff0000&quot;&gt;&lt;b&gt;firmware-x.x.x.hex&lt;/b&gt;&lt;/font&gt;&lt;br&gt;-&amp;gt; &lt;font&gt;fw_latest_dat&lt;/font&gt;" style="rounded=0;whiteSpace=wrap;html=1;" parent="1" vertex="1">
          <mxGeometry x="-275" y="641" width="120" height="60" as="geometry" />
        </mxCell>
        <mxCell id="CXJbbaDLJKEDGF4cZTQp-3" value="Save&lt;br&gt;&lt;font&gt;fw_latest_dat -&amp;gt;&lt;br&gt;&lt;b&gt;&lt;font color=&quot;#0000ff&quot;&gt;fw-latest.hex&lt;/font&gt;&lt;/b&gt;&lt;br&gt;&lt;/font&gt;" style="rounded=0;whiteSpace=wrap;html=1;" parent="1" vertex="1">
          <mxGeometry x="-426" y="969" width="120" height="60" as="geometry" />
        </mxCell>
        <mxCell id="CXJbbaDLJKEDGF4cZTQp-5" style="edgeStyle=orthogonalEdgeStyle;rounded=0;orthogonalLoop=1;jettySize=auto;html=1;endArrow=block;endFill=0;strokeColor=#000000;strokeWidth=1;exitX=0.5;exitY=1;exitDx=0;exitDy=0;entryX=0.5;entryY=0;entryDx=0;entryDy=0;" parent="1" source="CXJbbaDLJKEDGF4cZTQp-2" target="CXJbbaDLJKEDGF4cZTQp-6" edge="1">
          <mxGeometry relative="1" as="geometry">
            <mxPoint x="-135" y="711" as="sourcePoint" />
            <mxPoint x="-315" y="731" as="targetPoint" />
          </mxGeometry>
        </mxCell>
        <mxCell id="CXJbbaDLJKEDGF4cZTQp-6" value="Parse IHex&lt;br&gt;&lt;font&gt;fw_latest_dat &lt;br&gt;-&amp;gt; payload&lt;br&gt;&lt;/font&gt;" style="rounded=0;whiteSpace=wrap;html=1;" parent="1" vertex="1">
          <mxGeometry x="-275" y="751" width="120" height="60" as="geometry" />
        </mxCell>
        <mxCell id="CXJbbaDLJKEDGF4cZTQp-7" value="IHex parse errors ?" style="rhombus;whiteSpace=wrap;html=1;" parent="1" vertex="1">
          <mxGeometry x="-297.5" y="861" width="165" height="90" as="geometry" />
        </mxCell>
        <mxCell id="CXJbbaDLJKEDGF4cZTQp-8" value="No" style="edgeStyle=orthogonalEdgeStyle;rounded=0;orthogonalLoop=1;jettySize=auto;html=1;endArrow=block;endFill=0;strokeColor=#000000;strokeWidth=1;entryX=0.5;entryY=0;entryDx=0;entryDy=0;exitX=0;exitY=0.5;exitDx=0;exitDy=0;" parent="1" source="CXJbbaDLJKEDGF4cZTQp-7" target="CXJbbaDLJKEDGF4cZTQp-3" edge="1">
          <mxGeometry x="0.485" y="10" relative="1" as="geometry">
            <mxPoint as="offset" />
            <mxPoint x="-165" y="981" as="sourcePoint" />
            <mxPoint x="-297.5" y="995" as="targetPoint" />
          </mxGeometry>
        </mxCell>
        <mxCell id="CXJbbaDLJKEDGF4cZTQp-9" style="edgeStyle=orthogonalEdgeStyle;rounded=0;orthogonalLoop=1;jettySize=auto;html=1;endArrow=block;endFill=0;strokeColor=#000000;strokeWidth=1;entryX=0.5;entryY=0;entryDx=0;entryDy=0;exitX=0.5;exitY=1;exitDx=0;exitDy=0;" parent="1" source="CXJbbaDLJKEDGF4cZTQp-6" target="CXJbbaDLJKEDGF4cZTQp-7" edge="1">
          <mxGeometry relative="1" as="geometry">
            <mxPoint x="-145" y="831" as="sourcePoint" />
            <mxPoint x="-205" y="761" as="targetPoint" />
          </mxGeometry>
        </mxCell>
        <mxCell id="CXJbbaDLJKEDGF4cZTQp-13" value="" style="edgeStyle=orthogonalEdgeStyle;rounded=0;orthogonalLoop=1;jettySize=auto;html=1;endArrow=block;endFill=0;strokeColor=#000000;strokeWidth=1;entryX=0.5;entryY=0;entryDx=0;entryDy=0;exitX=0.5;exitY=1;exitDx=0;exitDy=0;" parent="1" source="CXJbbaDLJKEDGF4cZTQp-3" target="aLQe0wNo5wLi3Sxk2y81-13" edge="1">
          <mxGeometry y="20" relative="1" as="geometry">
            <mxPoint as="offset" />
            <mxPoint x="-306" y="1059" as="sourcePoint" />
            <mxPoint x="-356" y="979" as="targetPoint" />
          </mxGeometry>
        </mxCell>
        <mxCell id="CXJbbaDLJKEDGF4cZTQp-14" value="Yes" style="edgeStyle=orthogonalEdgeStyle;rounded=0;orthogonalLoop=1;jettySize=auto;html=1;endArrow=block;endFill=0;strokeColor=#000000;strokeWidth=1;exitX=1;exitY=0.5;exitDx=0;exitDy=0;entryX=0;entryY=0.5;entryDx=0;entryDy=0;" parent="1" source="CXJbbaDLJKEDGF4cZTQp-7" target="DqUX-duL37DNaFb8Gwn0-19" edge="1">
          <mxGeometry x="-0.0323" y="15" relative="1" as="geometry">
            <mxPoint x="-122.5" y="562" as="sourcePoint" />
            <mxPoint x="-85" y="906" as="targetPoint" />
            <mxPoint x="1" as="offset" />
          </mxGeometry>
        </mxCell>
        <mxCell id="CXJbbaDLJKEDGF4cZTQp-15" value="Yes" style="edgeStyle=orthogonalEdgeStyle;rounded=0;orthogonalLoop=1;jettySize=auto;html=1;endArrow=block;endFill=0;strokeColor=#000000;strokeWidth=1;exitX=0.5;exitY=1;exitDx=0;exitDy=0;entryX=0.5;entryY=0;entryDx=0;entryDy=0;" parent="1" source="CXJbbaDLJKEDGF4cZTQp-1" target="rALxHIFjaiXuFr-EPLwB-7" edge="1">
          <mxGeometry y="20" relative="1" as="geometry">
            <mxPoint x="74" y="1769" as="targetPoint" />
            <mxPoint as="offset" />
            <mxPoint x="-96" y="1790" as="sourcePoint" />
          </mxGeometry>
        </mxCell>
        <mxCell id="CXJbbaDLJKEDGF4cZTQp-16" value="Assign&lt;br&gt;&lt;b&gt;&lt;font color=&quot;#0000ff&quot;&gt;fw-latest-hex&lt;/font&gt;&lt;/b&gt;&lt;br&gt;-&amp;gt; &lt;font&gt;fw_latest_dat&lt;/font&gt;" style="rounded=0;whiteSpace=wrap;html=1;" parent="1" vertex="1">
          <mxGeometry x="169" y="346" width="120" height="60" as="geometry" />
        </mxCell>
        <mxCell id="CXJbbaDLJKEDGF4cZTQp-17" style="edgeStyle=orthogonalEdgeStyle;rounded=0;orthogonalLoop=1;jettySize=auto;html=1;endArrow=block;endFill=0;strokeColor=#000000;strokeWidth=1;exitX=0.5;exitY=1;exitDx=0;exitDy=0;entryX=1;entryY=0.5;entryDx=0;entryDy=0;" parent="1" source="CXJbbaDLJKEDGF4cZTQp-16" target="CXJbbaDLJKEDGF4cZTQp-6" edge="1">
          <mxGeometry relative="1" as="geometry">
            <mxPoint x="318" y="751" as="sourcePoint" />
            <mxPoint x="318" y="801" as="targetPoint" />
          </mxGeometry>
        </mxCell>
        <mxCell id="DqUX-duL37DNaFb8Gwn0-5" value="&lt;font style=&quot;font-size: 14px&quot;&gt;S&lt;/font&gt;" style="ellipse;whiteSpace=wrap;html=1;aspect=fixed;fillColor=#d5e8d4;strokeColor=#82b366;" parent="1" vertex="1">
          <mxGeometry x="530" y="185" width="40" height="40" as="geometry" />
        </mxCell>
        <mxCell id="DqUX-duL37DNaFb8Gwn0-6" value="Start application" style="rounded=0;whiteSpace=wrap;html=1;" parent="1" vertex="1">
          <mxGeometry x="490" y="265" width="120" height="60" as="geometry" />
        </mxCell>
        <mxCell id="DqUX-duL37DNaFb8Gwn0-9" value="" style="edgeStyle=orthogonalEdgeStyle;rounded=0;orthogonalLoop=1;jettySize=auto;html=1;endArrow=block;endFill=0;strokeColor=#000000;strokeWidth=1;entryX=0.5;entryY=0;entryDx=0;entryDy=0;exitX=0.5;exitY=1;exitDx=0;exitDy=0;" parent="1" source="DqUX-duL37DNaFb8Gwn0-5" target="DqUX-duL37DNaFb8Gwn0-6" edge="1">
          <mxGeometry x="-0.0256" y="20" relative="1" as="geometry">
            <mxPoint x="570" y="285" as="targetPoint" />
            <mxPoint as="offset" />
            <mxPoint x="530" y="245" as="sourcePoint" />
          </mxGeometry>
        </mxCell>
        <mxCell id="DqUX-duL37DNaFb8Gwn0-19" value="&lt;font style=&quot;font-size: 14px&quot;&gt;R&lt;/font&gt;" style="ellipse;whiteSpace=wrap;html=1;aspect=fixed;fillColor=#f8cecc;strokeColor=#b85450;" parent="1" vertex="1">
          <mxGeometry x="-87.5" y="886" width="40" height="40" as="geometry" />
        </mxCell>
        <mxCell id="DqUX-duL37DNaFb8Gwn0-20" value="&lt;font style=&quot;font-size: 14px&quot;&gt;R&lt;/font&gt;" style="ellipse;whiteSpace=wrap;html=1;aspect=fixed;fillColor=#f8cecc;strokeColor=#b85450;" parent="1" vertex="1">
          <mxGeometry x="-531" y="1200" width="40" height="40" as="geometry" />
        </mxCell>
        <mxCell id="DqUX-duL37DNaFb8Gwn0-21" value="End update&lt;br&gt;process" style="rounded=1;whiteSpace=wrap;html=1;fillColor=#d5e8d4;strokeColor=#82b366;" parent="1" vertex="1">
          <mxGeometry x="490" y="365" width="120" height="50" as="geometry" />
        </mxCell>
        <mxCell id="DqUX-duL37DNaFb8Gwn0-22" value="" style="edgeStyle=orthogonalEdgeStyle;rounded=0;orthogonalLoop=1;jettySize=auto;html=1;endArrow=block;endFill=0;strokeColor=#000000;strokeWidth=1;entryX=0.5;entryY=0;entryDx=0;entryDy=0;exitX=0.5;exitY=1;exitDx=0;exitDy=0;" parent="1" source="DqUX-duL37DNaFb8Gwn0-6" target="DqUX-duL37DNaFb8Gwn0-21" edge="1">
          <mxGeometry x="-0.0256" y="20" relative="1" as="geometry">
            <mxPoint x="650" y="374" as="targetPoint" />
            <mxPoint as="offset" />
            <mxPoint x="650" y="334" as="sourcePoint" />
          </mxGeometry>
        </mxCell>
        <mxCell id="DqUX-duL37DNaFb8Gwn0-24" value="&lt;font style=&quot;font-size: 14px&quot;&gt;R&lt;/font&gt;" style="ellipse;whiteSpace=wrap;html=1;aspect=fixed;fillColor=#f8cecc;strokeColor=#b85450;" parent="1" vertex="1">
          <mxGeometry x="-235" y="1595" width="40" height="40" as="geometry" />
        </mxCell>
        <mxCell id="DqUX-duL37DNaFb8Gwn0-25" value="Update retries&lt;br&gt;exceeded ?" style="rhombus;whiteSpace=wrap;html=1;" parent="1" vertex="1">
          <mxGeometry x="149" y="160" width="160" height="90" as="geometry" />
        </mxCell>
        <mxCell id="DqUX-duL37DNaFb8Gwn0-26" value="" style="edgeStyle=orthogonalEdgeStyle;rounded=0;orthogonalLoop=1;jettySize=auto;html=1;strokeWidth=1;endArrow=block;endFill=0;strokeColor=#000000;exitX=0.5;exitY=1;exitDx=0;exitDy=0;entryX=0.5;entryY=0;entryDx=0;entryDy=0;" parent="1" source="aLQe0wNo5wLi3Sxk2y81-1" target="DqUX-duL37DNaFb8Gwn0-25" edge="1">
          <mxGeometry x="-0.1489" y="21" relative="1" as="geometry">
            <mxPoint x="228.5" y="110" as="sourcePoint" />
            <mxPoint x="340" y="160" as="targetPoint" />
            <mxPoint as="offset" />
          </mxGeometry>
        </mxCell>
        <mxCell id="DqUX-duL37DNaFb8Gwn0-27" value="Yes" style="edgeStyle=orthogonalEdgeStyle;rounded=0;orthogonalLoop=1;jettySize=auto;html=1;endArrow=block;endFill=0;strokeColor=#000000;strokeWidth=1;entryX=0;entryY=0.5;entryDx=0;entryDy=0;exitX=1;exitY=0.5;exitDx=0;exitDy=0;" parent="1" source="DqUX-duL37DNaFb8Gwn0-25" target="mfgTEpgmeUBOBK6n-IBX-1" edge="1">
          <mxGeometry x="-0.0323" y="15" relative="1" as="geometry">
            <mxPoint x="320" y="257" as="sourcePoint" />
            <mxPoint x="379" y="205" as="targetPoint" />
            <mxPoint x="1" as="offset" />
          </mxGeometry>
        </mxCell>
        <mxCell id="rALxHIFjaiXuFr-EPLwB-2" value="&lt;font style=&quot;font-size: 14px&quot;&gt;R&lt;/font&gt;" style="ellipse;whiteSpace=wrap;html=1;aspect=fixed;fillColor=#f8cecc;strokeColor=#b85450;" parent="1" vertex="1">
          <mxGeometry x="530" y="471" width="40" height="40" as="geometry" />
        </mxCell>
        <mxCell id="rALxHIFjaiXuFr-EPLwB-3" value="Increment retries counter, save file &amp;amp; reset master" style="rounded=0;whiteSpace=wrap;html=1;" parent="1" vertex="1">
          <mxGeometry x="490" y="551" width="120" height="60" as="geometry" />
        </mxCell>
        <mxCell id="rALxHIFjaiXuFr-EPLwB-4" value="" style="edgeStyle=orthogonalEdgeStyle;rounded=0;orthogonalLoop=1;jettySize=auto;html=1;endArrow=block;endFill=0;strokeColor=#000000;strokeWidth=1;entryX=0.5;entryY=0;entryDx=0;entryDy=0;exitX=0.5;exitY=1;exitDx=0;exitDy=0;" parent="1" source="rALxHIFjaiXuFr-EPLwB-2" target="rALxHIFjaiXuFr-EPLwB-3" edge="1">
          <mxGeometry x="-0.0256" y="20" relative="1" as="geometry">
            <mxPoint x="570" y="571" as="targetPoint" />
            <mxPoint as="offset" />
            <mxPoint x="530" y="531" as="sourcePoint" />
          </mxGeometry>
        </mxCell>
        <mxCell id="rALxHIFjaiXuFr-EPLwB-5" value="Power On Reset" style="rounded=1;whiteSpace=wrap;html=1;fillColor=#f8cecc;strokeColor=#b85450;" parent="1" vertex="1">
          <mxGeometry x="490" y="651" width="120" height="50" as="geometry" />
        </mxCell>
        <mxCell id="rALxHIFjaiXuFr-EPLwB-6" value="" style="edgeStyle=orthogonalEdgeStyle;rounded=0;orthogonalLoop=1;jettySize=auto;html=1;endArrow=block;endFill=0;strokeColor=#000000;strokeWidth=1;entryX=0.5;entryY=0;entryDx=0;entryDy=0;exitX=0.5;exitY=1;exitDx=0;exitDy=0;" parent="1" source="rALxHIFjaiXuFr-EPLwB-3" target="rALxHIFjaiXuFr-EPLwB-5" edge="1">
          <mxGeometry x="-0.0256" y="20" relative="1" as="geometry">
            <mxPoint x="650" y="660" as="targetPoint" />
            <mxPoint as="offset" />
            <mxPoint x="650" y="620" as="sourcePoint" />
          </mxGeometry>
        </mxCell>
        <mxCell id="rALxHIFjaiXuFr-EPLwB-7" value="&lt;font style=&quot;font-size: 14px&quot;&gt;S&lt;/font&gt;" style="ellipse;whiteSpace=wrap;html=1;aspect=fixed;fillColor=#d5e8d4;strokeColor=#82b366;" parent="1" vertex="1">
          <mxGeometry x="54" y="1768" width="40" height="40" as="geometry" />
        </mxCell>
        <mxCell id="rALxHIFjaiXuFr-EPLwB-8" value="&lt;font style=&quot;font-size: 14px&quot;&gt;S&lt;/font&gt;" style="ellipse;whiteSpace=wrap;html=1;aspect=fixed;fillColor=#d5e8d4;strokeColor=#82b366;" parent="1" vertex="1">
          <mxGeometry x="49" y="572" width="40" height="40" as="geometry" />
        </mxCell>
        <mxCell id="mfgTEpgmeUBOBK6n-IBX-1" value="&lt;font style=&quot;font-size: 14px&quot;&gt;S&lt;/font&gt;" style="ellipse;whiteSpace=wrap;html=1;aspect=fixed;fillColor=#d5e8d4;strokeColor=#82b366;" parent="1" vertex="1">
          <mxGeometry x="350" y="185" width="40" height="40" as="geometry" />
        </mxCell>
        <mxCell id="nFl4lprx6UwOzpVi_gMF-3" value="&lt;b&gt;&lt;font style=&quot;font-size: 14px&quot;&gt;1&lt;/font&gt;&lt;/b&gt;" style="whiteSpace=wrap;html=1;shape=mxgraph.basic.oval_callout;flipH=1;fillColor=#ffe6cc;strokeColor=#d79b00;" parent="1" vertex="1">
          <mxGeometry x="140" y="147" width="49" height="30" as="geometry" />
        </mxCell>
        <mxCell id="nFl4lprx6UwOzpVi_gMF-4" value="&lt;b&gt;&lt;font style=&quot;font-size: 14px&quot;&gt;2&lt;/font&gt;&lt;/b&gt;" style="whiteSpace=wrap;html=1;shape=mxgraph.basic.oval_callout;flipH=1;fillColor=#ffe6cc;strokeColor=#d79b00;" parent="1" vertex="1">
          <mxGeometry x="-20" y="240" width="49" height="30" as="geometry" />
        </mxCell>
        <mxCell id="nFl4lprx6UwOzpVi_gMF-5" value="&lt;b&gt;&lt;font style=&quot;font-size: 14px&quot;&gt;3&lt;/font&gt;&lt;/b&gt;" style="whiteSpace=wrap;html=1;shape=mxgraph.basic.oval_callout;flipH=1;fillColor=#ffe6cc;strokeColor=#d79b00;" parent="1" vertex="1">
          <mxGeometry x="-154.5" y="527" width="49" height="30" as="geometry" />
        </mxCell>
        <mxCell id="nFl4lprx6UwOzpVi_gMF-6" value="&lt;b&gt;&lt;font style=&quot;font-size: 14px&quot;&gt;4&lt;/font&gt;&lt;/b&gt;" style="whiteSpace=wrap;html=1;shape=mxgraph.basic.oval_callout;flipH=1;fillColor=#ffe6cc;strokeColor=#d79b00;" parent="1" vertex="1">
          <mxGeometry x="-297.5" y="844" width="49" height="30" as="geometry" />
        </mxCell>
        <mxCell id="nFl4lprx6UwOzpVi_gMF-7" value="&lt;b&gt;&lt;font style=&quot;font-size: 14px&quot;&gt;5&lt;/font&gt;&lt;/b&gt;" style="whiteSpace=wrap;html=1;shape=mxgraph.basic.oval_callout;flipH=1;fillColor=#ffe6cc;strokeColor=#d79b00;" parent="1" vertex="1">
          <mxGeometry x="-455" y="1161" width="49" height="30" as="geometry" />
        </mxCell>
        <mxCell id="nFl4lprx6UwOzpVi_gMF-8" value="&lt;b&gt;&lt;font style=&quot;font-size: 14px&quot;&gt;6&lt;/font&gt;&lt;/b&gt;" style="whiteSpace=wrap;html=1;shape=mxgraph.basic.oval_callout;flipH=1;fillColor=#ffe6cc;strokeColor=#d79b00;" parent="1" vertex="1">
          <mxGeometry x="-304" y="1265" width="49" height="30" as="geometry" />
        </mxCell>
        <mxCell id="nFl4lprx6UwOzpVi_gMF-9" value="&lt;b&gt;&lt;font style=&quot;font-size: 14px&quot;&gt;7&lt;/font&gt;&lt;/b&gt;" style="whiteSpace=wrap;html=1;shape=mxgraph.basic.oval_callout;flipH=1;fillColor=#ffe6cc;strokeColor=#d79b00;" parent="1" vertex="1">
          <mxGeometry x="-157.5" y="1556" width="49" height="30" as="geometry" />
        </mxCell>
      </root>
    </mxGraphModel>
  </diagram>
</mxfile>
